Coordinates
version=1
nRows=10
nColumns=40
inDegrees=yes

Units are S.I. units (second, meters, Newtons, ...)
Angles are in degrees.

endheader
time	pelvis_tilt	pelvis_list	pelvis_rotation	pelvis_tx	pelvis_ty	pelvis_tz	hip_flexion_r	hip_adduction_r	hip_rotation_r	knee_angle_r	knee_angle_r_beta	ankle_angle_r	subtalar_angle_r	mtp_angle_r	hip_flexion_l	hip_adduction_l	hip_rotation_l	knee_angle_l	knee_angle_l_beta	ankle_angle_l	subtalar_angle_l	mtp_angle_l	lumbar_extension	lumbar_bending	lumbar_rotation	arm_flex_r	arm_add_r	arm_rot_r	elbow_flex_r	pro_sup_r	wrist_flex_r	wrist_dev_r	arm_flex_l	arm_add_l	arm_rot_l	elbow_flex_l	pro_sup_l	wrist_flex_l	wrist_dev_l
     30.82000000	     -1.79102889	     -4.17618924	      2.41528268	      1.13521041	      0.93341355	      0.50925307	      9.92922993	      1.83666701	    -14.61184290	     16.70439503	     16.70439503	     10.32677460	      0.08964823	     -5.90308181	     28.63090211	    -11.89310855	      1.13578276	     53.03334824	     53.03334824	      9.89698721	    -17.92320258	     10.91700786	    -10.63861105	      6.19440480	      2.15580057	     19.69857343	    -19.89143651	     -0.58768054	     60.70678859	     44.54676537	      0.00000000	      0.00000000	      4.26098742	     -8.48038462	     -5.52920488	     31.90831993	     44.68404795	      0.00000000	      0.00000000
     30.83335714	     -1.98829098	     -4.08758539	      2.92008747	      1.13356870	      0.93355021	      0.50941019	      9.59864641	      1.79001056	    -15.01646964	     16.25788691	     16.25788691	     10.40571570	      0.14723598	     -5.94101921	     29.57370418	    -11.72376210	      0.89670610	     50.15231993	     50.15231993	      9.88536155	    -17.98291313	     11.02058360	    -10.55633418	      6.01252511	      1.81480155	     21.21246431	    -19.75930389	     -0.76695668	     62.44808574	     44.51269032	      0.00000000	      0.00000000	      3.04554304	     -8.39348929	     -5.36918457	     30.97065229	     44.66621711	      0.00000000	      0.00000000
     30.84671429	     -2.16113089	     -4.12450408	      3.38968287	      1.13195548	      0.93344898	      0.50950274	      9.28492869	      1.86621614	    -15.43336093	     15.87207153	     15.87207153	     10.44483586	      0.26807104	     -6.26325410	     30.28113109	    -11.65244281	      0.64963572	     46.93712776	     46.93712776	      9.27029248	    -18.01439122	      9.44376240	    -10.60208416	      6.09774856	      2.29331816	     21.78728902	    -20.55629295	     -0.81187675	     66.13103337	     44.45288885	      0.00000000	      0.00000000	      2.30874859	     -8.11921055	     -4.96090551	     29.91822899	     44.70262751	      0.00000000	      0.00000000
     30.86007143	     -2.32539320	     -4.09728059	      3.85286005	      1.13038805	      0.93345302	      0.50955742	      8.96274399	      1.90225135	    -15.69165503	     15.48519516	     15.48519516	     10.54312261	      0.15500070	     -6.23811827	     30.79785494	    -11.41652859	      0.42708675	     43.52456827	     43.52456827	      9.13661093	    -17.84911409	      9.72977645	    -10.59099121	      6.02974134	      2.16939974	     23.32237815	    -20.51782698	     -1.11631540	     67.68075435	     44.42945299	      0.00000000	      0.00000000	      1.19410269	     -7.99810424	     -4.83224775	     29.23385608	     44.68555298	      0.00000000	      0.00000000
     30.87342857	     -2.47488502	     -4.10108330	      4.31189413	      1.12886115	      0.93334915	      0.50948494	      8.63779131	      1.95577103	    -15.99991092	     15.12147075	     15.12147075	     10.65800418	      0.12777148	     -6.26657923	     31.17522379	    -11.14828908	      0.25528269	     40.00873846	     40.00873846	      8.87738426	    -17.55660108	      9.92111116	    -10.60738582	      6.02454331	      2.05268818	     24.73782391	    -20.52702470	     -1.33688697	     69.62798015	     44.39021613	      0.00000000	      0.00000000	      0.12295939	     -7.87270479	     -4.70113623	     28.59707698	     44.66956143	      0.00000000	      0.00000000
     30.88678571	     -2.62714948	     -4.16383848	      4.74772969	      1.12742334	      0.93309631	      0.50930270	      8.33568196	      2.04078999	    -16.42515931	     14.79233711	     14.79233711	     10.74495853	      0.28194908	     -6.51980185	     31.41527870	    -10.91905057	      0.09077765	     36.36804377	     36.36804377	      8.01033113	    -17.20543019	      8.68641496	    -10.67500616	      6.10269887	      2.52626041	     25.17242483	    -21.25896628	     -1.71764055	     73.45706229	     44.34073162	      0.00000000	      0.00000000	     -0.56990629	     -7.67781647	     -4.20694579	     28.01563130	     44.67462543	      0.00000000	      0.00000000
     30.90014286	     -2.76164254	     -4.12642251	      5.16098793	      1.12604831	      0.93292990	      0.50893992	      8.02008707	      2.03554197	    -16.64077759	     14.48469172	     14.48469172	     10.89548134	      0.17300699	     -6.54287195	     31.57736166	    -10.55063441	     -0.07590751	     32.89863634	     32.89863634	      7.73819453	    -16.38806499	      9.15348520	    -10.68167742	      6.07899906	      2.43126606	     26.60839217	    -21.13775781	     -2.00365848	     74.90880469	     44.32060941	      0.00000000	      0.00000000	     -1.52434666	     -7.59634814	     -4.05577769	     27.47814595	     44.65339550	      0.00000000	      0.00000000
     30.91350000	     -2.90899267	     -4.20598827	      5.55501697	      1.12473632	      0.93259599	      0.50852687	      7.73831730	      2.14317152	    -16.94488724	     14.19640466	     14.19640466	     11.01033663	      0.18415544	     -6.61083481	     31.78435966	    -10.28054089	     -0.10112604	     29.68228980	     29.68228980	      7.48059348	    -15.34085678	      9.43904098	    -10.68753489	      6.10197861	      2.32411285	     27.93878013	    -21.09802828	     -2.22517283	     76.72930085	     44.28756186	      0.00000000	      0.00000000	     -2.42629783	     -7.45976151	     -3.88924370	     27.08130104	     44.63115593	      0.00000000	      0.00000000
     30.92685714	     -3.13483168	     -4.25575166	      5.92267225	      1.12344354	      0.93213786	      0.50788477	      7.54823718	      2.19582370	    -17.20011002	     13.93412487	     13.93412487	     11.16689741	      0.15251611	     -6.67813977	     32.07109447	     -9.98034349	     -0.16217634	     26.75512372	     26.75512372	      7.23733352	    -13.98206341	      9.78321426	    -10.54425503	      6.14456004	      2.39834743	     29.20673340	    -21.13929268	     -2.40627392	     78.14081354	     44.25993809	      0.00000000	      0.00000000	     -3.19893370	     -7.28401306	     -3.78686242	     26.80348089	     44.61146244	      0.00000000	      0.00000000
     30.94021429	     -3.16198799	     -4.27160951	      6.26671146	      1.12243274	      0.93199085	      0.50717637	      7.06183255	      2.24766170	    -17.46154117	     13.55247663	     13.55247663	     11.30924895	      0.28483997	     -6.77360393	     32.07883165	     -9.70248540	     -0.28322442	     24.09430737	     24.09430737	      6.97392973	    -12.38674101	      9.93213872	    -10.66434703	      6.12965103	      2.21166240	     30.33479550	    -20.91246239	     -2.51996934	     80.41026065	     44.20751841	      0.00000000	      0.00000000	     -4.11926167	     -7.24528952	     -3.62901597	     26.54922486	     44.58706522	      0.00000000	      0.00000000
